<?xml version="1.0" standalone="no"?>
<!DOCTYPE svg PUBLIC "-//W3C//DTD SVG 20010904//EN"
 "http://www.w3.org/TR/2001/REC-SVG-20010904/DTD/svg10.dtd">
<svg version="1.0" xmlns="http://www.w3.org/2000/svg"
 width="288.000000pt" height="288.000000pt" viewBox="0 0 288.000000 288.000000"
 preserveAspectRatio="xMidYMid meet">
<metadata>
Created by potrace 1.14, written by Peter Selinger 2001-2017
</metadata>
<g transform="translate(0.000000,288.000000) scale(0.100000,-0.100000)"
fill="#000000" stroke="none">
<path d="M1375 2616 c-16 -7 -229 -185 -472 -396 -441 -380 -443 -382 -443
-420 0 -30 6 -43 26 -59 34 -27 64 -27 100 1 16 13 210 179 432 371 222 191
414 353 427 359 19 8 28 8 42 -3 10 -8 196 -167 413 -354 492 -423 457 -395
488 -395 51 1 90 57 73 103 -5 13 -88 92 -185 176 l-176 152 0 154 c0 147 -1
155 -23 181 -30 35 -79 37 -110 5 -18 -18 -23 -36 -27 -110 l-5 -89 -183 158
c-101 87 -197 163 -214 169 -42 15 -126 13 -163 -3z"/>
<path d="M1408 2337 c-15 -7 -175 -140 -357 -297 l-331 -285 0 -422 0 -423
740 0 740 0 0 423 0 422 -330 285 c-182 156 -340 290 -353 297 -28 16 -74 16
-109 0z m-259 -658 c65 -40 90 -92 77 -163 -4 -18 -43 -85 -88 -150 l-81 -116
-58 0 c-33 0 -59 3 -59 6 0 3 20 32 45 64 25 32 45 61 45 63 0 3 -11 8 -24 11
-66 17 -125 111 -112 180 8 43 49 94 91 112 47 21 124 17 164 -7z m391 -2 c61
-40 75 -78 75 -197 0 -117 -16 -165 -69 -204 -40 -30 -139 -29 -182 1 -54 38
-69 84 -69 203 0 88 3 111 21 140 31 53 77 80 139 80 37 0 61 -6 85 -23z m401
0 c56 -37 74 -86 74 -202 0 -160 -43 -220 -160 -220 -74 0 -107 19 -139 81
-30 57 -31 233 0 284 46 79 152 106 225 57z"/>
<path d="M1020 1590 c-28 -28 -25 -64 7 -89 43 -34 93 -7 93 50 0 30 -31 59
-62 59 -10 0 -27 -9 -38 -20z"/>
<path d="M1419 1583 c-9 -10 -15 -47 -17 -97 -3 -99 10 -131 53 -131 40 0 55
32 55 116 0 92 -14 129 -50 129 -15 0 -34 -7 -41 -17z"/>
<path d="M1828 1591 c-20 -17 -23 -29 -26 -103 -3 -101 9 -133 53 -133 40 0
55 32 55 117 0 77 -11 112 -39 127 -15 8 -24 6 -43 -8z"/>
<path d="M440 690 c0 -103 1 -110 20 -110 17 0 20 7 20 45 0 45 0 45 35 45 69
0 100 69 49 109 -19 15 -41 21 -75 21 l-49 0 0 -110z m100 55 c17 -20 4 -35
-31 -35 -24 0 -29 4 -29 25 0 20 5 25 24 25 13 0 29 -7 36 -15z"/>
<path d="M660 776 c-4 -13 -22 -62 -39 -110 l-30 -86 23 0 c15 0 26 7 29 20 4
16 14 20 50 20 36 0 46 -4 50 -20 5 -20 47 -29 47 -11 0 5 -16 55 -36 110 -32
90 -39 101 -60 101 -17 0 -27 -8 -34 -24z m60 -103 c0 -8 -12 -13 -30 -13 -19
0 -28 4 -25 13 2 6 10 26 16 42 l11 30 14 -30 c7 -16 13 -36 14 -42z"/>
<path d="M829 693 c34 -95 41 -108 63 -111 23 -3 28 4 62 98 20 56 36 106 36
111 0 6 -10 9 -22 7 -17 -2 -26 -18 -46 -76 -13 -41 -28 -70 -32 -65 -4 4 -17
38 -30 76 -19 58 -25 67 -45 67 l-24 0 38 -107z"/>
<path d="M1020 690 c0 -103 1 -110 20 -110 19 0 20 7 20 110 0 103 -1 110 -20
110 -19 0 -20 -7 -20 -110z"/>
<path d="M1110 690 l0 -110 60 0 c53 0 60 2 60 19 0 16 -8 20 -37 23 l-38 3
-3 88 c-3 79 -5 87 -22 87 -19 0 -20 -7 -20 -110z"/>
<path d="M1260 690 c0 -103 1 -110 20 -110 19 0 20 7 20 110 0 103 -1 110 -20
110 -19 0 -20 -7 -20 -110z"/>
<path d="M1350 711 c0 -86 1 -90 28 -111 21 -17 36 -21 65 -17 66 9 77 27 77
129 0 81 -2 88 -20 88 -18 0 -20 -7 -20 -78 0 -82 -9 -102 -45 -102 -36 0 -45
20 -45 102 0 71 -2 78 -20 78 -19 0 -20 -7 -20 -89z"/>
<path d="M1570 690 c0 -103 1 -110 20 -110 17 0 19 8 22 73 l3 72 54 -72 c40
-55 59 -73 77 -73 24 0 24 1 24 110 l0 110 -25 0 c-23 0 -24 -3 -27 -71 l-3
-70 -50 70 c-36 52 -56 71 -72 71 -22 0 -23 -3 -23 -110z"/>
<path d="M1935 788 c-28 -16 -35 -28 -35 -65 0 -34 18 -58 50 -68 19 -6 19 -8
-6 -41 l-26 -34 24 0 c33 0 108 104 108 148 0 54 -66 88 -115 60z m70 -63 c0
-27 -3 -30 -30 -30 -21 0 -31 5 -33 18 -6 33 6 49 35 45 24 -3 28 -8 28 -33z"/>
<path d="M2132 793 c-20 -8 -42 -59 -42 -96 0 -102 63 -148 127 -93 24 21 27
31 28 84 0 50 -4 65 -24 86 -23 25 -57 32 -89 19z m70 -70 c18 -69 -25 -133
-59 -87 -16 22 -17 78 -2 105 16 31 51 21 61 -18z"/>
<path d="M2320 782 c-31 -25 -40 -114 -16 -160 33 -64 110 -50 134 23 34 102
-47 194 -118 137z m74 -38 c3 -9 6 -33 6 -54 0 -51 -8 -70 -31 -70 -23 0 -39
29 -39 70 0 17 5 40 10 51 13 23 46 25 54 3z"/>
<path d="M2097 340 c6 -8 13 -26 16 -40 l4 -25 2 26 c0 15 -7 33 -16 40 -16
12 -17 12 -6 -1z"/>
<path d="M954 322 l-21 -18 26 -19 c26 -19 26 -19 9 1 -17 19 -17 21 -1 37 22
22 14 21 -13 -1z"/>
<path d="M1001 303 c-1 -39 1 -43 22 -42 16 1 18 2 5 6 -10 2 -18 11 -18 18 0
7 8 16 18 18 15 4 15 5 0 6 -9 0 -19 9 -21 19 -3 9 -5 -2 -6 -25z"/>
<path d="M1132 310 c0 -19 2 -27 5 -17 2 9 2 25 0 35 -3 9 -5 1 -5 -18z"/>
<path d="M1212 305 c0 -22 2 -32 5 -23 2 9 16 19 31 21 l27 4 -27 2 c-16 0
-28 8 -31 19 -3 9 -5 -1 -5 -23z"/>
<path d="M1335 329 c-4 -6 -5 -12 -2 -15 2 -3 7 2 10 11 7 17 1 20 -8 4z"/>
<path d="M1433 300 c0 -25 2 -34 4 -22 l5 24 26 -24 27 -23 -22 25 c-22 25
-22 27 -5 45 17 19 17 19 -5 1 -20 -17 -21 -17 -26 1 -3 10 -5 -2 -4 -27z"/>
<path d="M1603 305 c0 -22 2 -30 4 -17 2 12 2 30 0 40 -3 9 -5 -1 -4 -23z"/>
<path d="M1660 300 c0 -22 2 -40 4 -40 2 0 6 18 8 40 2 22 0 40 -4 40 -5 0 -8
-18 -8 -40z"/>
<path d="M1718 304 c-2 -19 0 -37 4 -40 4 -3 8 13 8 35 0 51 -6 53 -12 5z"/>
<path d="M1755 329 c-4 -6 -5 -12 -2 -15 2 -3 7 2 10 11 7 17 1 20 -8 4z"/>
<path d="M1816 327 c3 -10 9 -15 12 -12 3 3 0 11 -7 18 -10 9 -11 8 -5 -6z"/>
<path d="M1911 317 c0 -10 6 -20 14 -23 8 -4 12 -10 9 -15 -3 -5 -3 -9 -1 -9
3 0 13 12 22 28 10 15 12 21 4 15 -18 -18 -37 -16 -42 5 -4 16 -5 16 -6 -1z"/>
<path d="M1680 316 c0 -2 8 -10 18 -17 15 -13 16 -12 3 4 -13 16 -21 21 -21
13z"/>
<path d="M2061 304 c0 -11 3 -14 6 -6 3 7 2 16 -1 19 -3 4 -6 -2 -5 -13z"/>
<path d="M1078 303 c6 -2 18 -2 25 0 6 3 1 5 -13 5 -14 0 -19 -2 -12 -5z"/>
<path d="M1330 291 c0 -6 4 -13 10 -16 6 -3 7 1 4 9 -7 18 -14 21 -14 7z"/>
<path d="M1396 283 c-6 -14 -5 -15 5 -6 7 7 10 15 7 18 -3 3 -9 -2 -12 -12z"/>
<path d="M1750 291 c0 -6 4 -13 10 -16 6 -3 7 1 4 9 -7 18 -14 21 -14 7z"/>
<path d="M1816 283 c-6 -14 -5 -15 5 -6 7 7 10 15 7 18 -3 3 -9 -2 -12 -12z"/>
<path d="M1997 269 c7 -7 15 -10 18 -7 3 3 -2 9 -12 12 -14 6 -15 5 -6 -5z"/>
<path d="M2077 269 c7 -7 15 -10 18 -7 3 3 -2 9 -12 12 -14 6 -15 5 -6 -5z"/>
<path d="M828 263 c7 -3 16 -2 19 1 4 3 -2 6 -13 5 -11 0 -14 -3 -6 -6z"/>
</g>
</svg>
